<svg width="157" height="32" viewBox="0 0 157 32" fill="none" xmlns="http://www.w3.org/2000/svg">
<path fill-rule="evenodd" clip-rule="evenodd" d="M30.595 16.1954V30.6259H16.5715V16.1958L23.5836 9.17722L30.595 16.1954ZM1.27624 30.624V17.4728L14.4143 30.624H1.27624ZM15.3457 14.4286L2.20612 1.27736H15.3461L15.3457 14.4286ZM1.27398 15.6559V2.15944L15.2975 16.1954V29.6919L1.27398 15.6559ZM30.5935 1.22729V14.3804L23.5836 7.36188L16.5719 14.3804V1.22729H30.5935ZM0 0V31.8995H31.8694V0H0ZM24.8045 24.6419C24.4174 24.802 24.0025 24.8839 23.5836 24.8828C23.1647 24.8837 22.7497 24.8018 22.3626 24.6417C21.9754 24.4815 21.6238 24.2465 21.3278 23.9499C21.0317 23.6534 20.797 23.3013 20.6371 22.9139C20.4772 22.5265 20.3953 22.1113 20.396 21.6922C20.3952 21.1443 20.5357 20.6054 20.804 20.1276C21.0723 19.6498 21.4593 19.2493 21.9275 18.9647C22.4266 18.6615 22.9997 18.5019 23.5836 18.5035C24.2144 18.5024 24.8312 18.6888 25.3557 19.0392C25.8802 19.3895 26.2886 19.8879 26.5291 20.471C26.6892 20.8582 26.7714 21.2732 26.7708 21.6922C26.7722 22.3234 26.5861 22.9407 26.236 23.4659C25.8859 23.9911 25.3877 24.4004 24.8045 24.6419ZM26.7336 18.5385C25.8981 17.7022 24.7657 17.2304 23.5836 17.2262C22.4015 17.2309 21.2692 17.7029 20.4337 18.5393C19.5978 19.3762 19.1262 20.5094 19.1217 21.6922C19.1257 22.8754 19.597 24.009 20.4329 24.8463C21.2684 25.6833 22.4011 26.1556 23.5836 26.1602C24.7657 26.156 25.8985 25.684 26.7347 24.8467C27.5706 24.0092 28.0416 22.8752 28.0448 21.6919C28.0408 20.5089 27.5695 19.3755 26.7336 18.5385ZM98.2276 7.97064H100.213C100.211 10.2833 100.212 12.596 100.215 14.9086H101.676C103.867 14.9086 106.055 14.9105 108.245 14.9064V7.97064H110.234C110.23 9.98024 110.232 11.9913 110.234 14.0009V14.0047C110.235 17.236 110.239 20.4668 110.22 23.6977C109.562 23.7131 108.904 23.7131 108.245 23.7094V16.7714H100.213C100.21 17.7009 100.21 18.63 100.213 19.5595C100.215 20.9389 100.219 22.3183 100.202 23.6977C99.8573 23.706 99.5129 23.7097 99.168 23.7109C98.8544 23.712 98.5408 23.7109 98.2276 23.7094C98.2291 18.4629 98.2291 13.2171 98.2276 7.97064ZM53.1411 12.637C53.9994 12.5982 54.8984 12.7085 55.6488 13.1512C56.8941 13.8703 57.6373 15.3054 57.6471 16.7292C57.6546 18.2125 57.6527 19.6958 57.6508 21.1795V23.7094C56.9769 23.7131 56.3034 23.715 55.6299 23.6996C55.616 22.6266 55.6183 21.5537 55.622 20.4823C55.6258 19.3032 55.6299 18.1218 55.6104 16.9431C55.5795 16.1028 55.2486 15.1782 54.4787 14.7445C53.9147 14.3556 53.1893 14.3518 52.5346 14.4365C51.6785 14.5461 50.8913 14.9779 50.2441 15.5347C50.2105 15.5708 50.1753 15.6055 50.1387 15.6386C50.0905 15.6838 50.0412 15.7297 49.9983 15.7794C49.9317 15.8569 49.8808 15.9432 49.8748 16.0489C49.8692 17.1396 49.8729 18.2298 49.8729 19.3205C49.8752 20.1464 49.8778 20.9724 49.8763 21.7984C49.8752 22.4328 49.8718 23.0671 49.8632 23.7018C49.1761 23.715 48.489 23.7207 47.8039 23.6883V12.8373C48.4468 12.8324 49.0897 12.8362 49.7325 12.8486L49.7363 12.899C49.7634 13.2631 49.7882 13.6271 49.8074 13.9915C50.7294 13.1784 51.9379 12.7755 53.1411 12.637ZM67.7094 13.475C66.077 12.3731 63.7711 12.3038 62.1353 13.4362C61.2765 14.0374 60.5902 14.8532 60.1449 15.8024C59.7466 16.6558 59.6119 17.6154 59.6427 18.5517C59.6714 19.5433 59.959 20.5101 60.477 21.3561C60.995 22.2021 61.7253 22.8979 62.5954 23.3743C63.1861 23.7056 63.8637 23.8231 64.5237 23.9251H65.2823C66.0269 23.8249 66.7776 23.6247 67.4052 23.197C67.7569 22.9522 68.0832 22.6727 68.3791 22.3627C68.3938 22.644 68.4134 22.9256 68.4367 23.2064C68.4521 23.3758 68.4657 23.5437 68.4751 23.7131C69.1046 23.7169 69.7321 23.7169 70.3612 23.7056C70.3759 21.3884 70.3797 19.0712 70.3729 16.7541V12.8414C69.7275 12.8379 69.0821 12.8379 68.4367 12.8414C68.4292 13.0997 68.4156 13.3617 68.4021 13.62C68.3942 13.7856 68.3848 13.9494 68.3791 14.115L68.3558 14.092C68.2297 13.9576 68.1035 13.8229 67.9695 13.6971C67.8867 13.6187 67.7999 13.5443 67.7094 13.475ZM61.7118 17.0296C62.1372 15.6348 63.4131 14.473 64.8971 14.3846C66.2464 14.2204 67.5765 14.9816 68.3019 16.0934C68.3599 16.4307 68.3539 16.7755 68.3464 17.1204C68.3464 17.2352 68.3441 17.35 68.3448 17.466C68.3448 17.5036 68.3452 17.5413 68.3464 17.5789C68.3384 17.9659 68.3426 18.3533 68.3464 18.7403C68.3482 19.0264 68.3509 19.3118 68.3494 19.5976C68.3481 19.8534 68.342 20.1092 68.3309 20.3648C67.8887 21.1375 67.1765 21.7195 66.3311 21.9987C65.8229 22.1527 65.2841 22.17 64.7567 22.141C63.1014 21.9561 61.7638 20.4823 61.5714 18.8544C61.5078 18.2453 61.504 17.6136 61.7118 17.0296ZM77.4923 12.7736C78.3586 12.5907 79.2783 12.5463 80.1254 12.8527C81.6169 13.321 82.6409 14.7968 82.7757 16.3264C82.8028 16.6652 82.8028 17.0067 82.8028 17.3478V17.3651C82.8009 17.92 82.8002 18.4753 82.7994 19.0302L82.7991 20.96V23.7094C82.5506 23.7075 82.3021 23.7094 82.0521 23.7131C81.6538 23.7169 81.2552 23.7229 80.8587 23.7056C80.745 23.6804 80.7608 23.555 80.774 23.4394C80.7838 23.3626 80.7913 23.2892 80.7684 23.2467C80.7706 22.4233 80.7714 21.5992 80.7718 20.7748L80.7721 19.2316V17.1106C80.7857 16.5037 80.6317 15.8893 80.3046 15.3766C80.0098 14.9218 79.529 14.6059 79.0091 14.473C78.455 14.3612 77.8718 14.3612 77.321 14.5039C76.5553 14.6831 75.872 15.1243 75.2907 15.6446L75.2233 15.706C75.1631 15.7579 75.1006 15.8129 75.0611 15.8788C75.0408 15.9106 75.0274 15.9463 75.0218 15.9836C75.0163 16.0209 75.0186 16.0589 75.0287 16.0952C75.0152 17.2416 75.0193 18.3898 75.0231 19.5381C75.0246 20.1167 75.0265 20.6957 75.0265 21.2747C75.0261 22.0879 75.0216 22.9011 75.0057 23.7131C74.7362 23.7094 74.4666 23.7131 74.1975 23.7131C73.8086 23.7169 73.4238 23.7188 73.0387 23.7056C72.9257 23.6808 72.9404 23.5561 72.954 23.4413V23.4394L72.9547 23.436C72.9641 23.3604 72.9728 23.2885 72.9483 23.2467C72.9521 21.2412 72.9521 19.2358 72.9521 17.228V12.8392C73.597 12.8354 74.2415 12.8354 74.8864 12.8392C74.9007 13.2213 74.9308 13.6023 74.9768 13.9817C75.6872 13.3576 76.5764 12.9781 77.4923 12.7736ZM93.9716 13.8353C92.3667 12.5271 90.0183 12.2748 88.1321 13.0955C86.6443 13.7656 85.4125 15.0818 84.9988 16.681C84.5579 18.33 84.812 20.2067 85.8496 21.5864C86.5901 22.6346 87.6753 23.3893 88.9156 23.7188C89.2879 23.8069 89.6651 23.8739 90.0454 23.9194H90.8537C91.6283 23.851 92.3835 23.6392 93.0808 23.2949C94.2182 22.6729 95.1767 21.6824 95.683 20.4823C96.2793 18.9929 96.2793 17.2435 95.5674 15.7948C95.2038 15.0261 94.6263 14.371 93.9716 13.8353ZM87.1063 16.5131C87.6762 15.392 88.8098 14.5096 90.0875 14.4211C91.3619 14.2686 92.7055 14.8277 93.4464 15.8856C93.9411 16.5075 94.1719 17.2954 94.2008 18.0834C94.2912 19.2531 93.7581 20.4243 92.8922 21.2047C92.1491 21.9313 91.0656 22.2106 90.0491 22.1293C88.9348 22.0216 87.9108 21.353 87.322 20.4088C86.5867 19.2681 86.4749 17.7254 87.1063 16.5131ZM114.709 13.6388C115.946 12.7503 117.557 12.4521 119.047 12.7315C120.631 12.9837 122.036 14.0164 122.868 15.3766C123.63 16.6152 123.805 18.1568 123.497 19.5629C123.183 21.1313 122.082 22.4685 120.706 23.241C120.386 23.4195 120.046 23.5569 119.697 23.6619C119.263 23.7891 118.818 23.876 118.368 23.9213H117.561C117.101 23.8633 116.641 23.7903 116.198 23.6514C114.672 23.1816 113.4 21.9949 112.77 20.5304C112.167 19.071 112.166 17.4318 112.768 15.9718C113.189 15.0311 113.861 14.2241 114.709 13.6388ZM117.603 14.4267C115.665 14.583 114.077 16.4883 114.245 18.4226C114.243 19.7252 115.005 20.9675 116.102 21.6422C117.041 22.2144 118.235 22.2874 119.262 21.9211C120.39 21.5032 121.258 20.4977 121.595 19.3513C121.896 18.2453 121.73 16.9909 121.048 16.0546C120.311 14.9395 118.943 14.2475 117.603 14.4267ZM131.267 12.6408C129.937 12.5655 128.667 13.1629 127.633 13.9528C127.606 13.7444 127.585 13.5354 127.57 13.3259C127.559 13.164 127.552 13.0022 127.55 12.8392H125.616V17.2299C125.616 19.2376 125.616 21.2431 125.612 23.2489C125.637 23.2911 125.627 23.3645 125.618 23.4376L125.617 23.4406C125.604 23.5595 125.59 23.6826 125.704 23.7075C126.049 23.718 126.395 23.7233 126.742 23.7214C127.038 23.7201 127.334 23.7128 127.629 23.6996L127.675 23.6555C127.693 22.2163 127.691 20.7752 127.687 19.334L127.686 18.9135C127.684 17.8921 127.682 16.8719 127.691 15.8505C128.311 15.2282 129.063 14.708 129.92 14.4768C130.638 14.3224 131.502 14.3477 132.054 14.9007C132.535 15.4594 132.631 16.2319 132.631 16.9431V23.7112L133.736 23.715H134.641C134.67 22.1737 134.666 20.6287 134.66 19.0856C134.658 17.9505 134.654 16.8158 134.664 15.6811C135.137 15.2629 135.64 14.8567 136.236 14.627C136.837 14.3774 137.501 14.3261 138.132 14.4806C138.571 14.611 138.945 14.902 139.179 15.2956C139.453 15.7849 139.586 16.3403 139.564 16.9005V19.2798C139.564 20.6035 139.564 21.9253 139.56 23.2489C139.584 23.2911 139.574 23.3645 139.566 23.4376C139.551 23.5573 139.535 23.6823 139.651 23.7075C140.049 23.7248 140.448 23.7188 140.846 23.7131C141.093 23.7131 141.342 23.7094 141.593 23.7131V16.7733C141.61 15.7154 141.32 14.6236 140.628 13.8044C139.992 13.0741 139.031 12.7044 138.082 12.6332C136.575 12.579 135.12 13.1938 133.921 14.0702C133.338 13.1938 132.287 12.7273 131.267 12.6408ZM145.065 14.3672C146.035 13.2939 147.448 12.6061 148.905 12.6216C149.937 12.5869 151.02 12.797 151.857 13.4347C152.361 13.7848 152.741 14.2863 153.079 14.793C153.595 15.5772 153.853 16.5018 153.976 17.4264V18.2261C153.954 18.3688 153.93 18.5112 153.904 18.6534L153.899 18.6771C153.874 18.813 153.85 18.9491 153.828 19.0856C153.042 19.095 152.257 19.0987 151.471 19.0999C150.674 19.1014 149.876 19.0999 149.078 19.0987C147.906 19.0968 146.734 19.095 145.56 19.1006C145.576 19.1834 145.591 19.2663 145.604 19.3491C145.635 19.6145 145.706 19.8731 145.816 20.1163C146.324 21.2277 147.467 21.9753 148.664 22.1316C150.119 22.2235 151.569 21.8815 152.829 21.149C152.835 21.6632 152.837 22.1798 152.839 22.6963V23.0389C152 23.5686 151.008 23.7786 150.033 23.8671C149.03 23.9176 147.994 23.9021 147.043 23.5418C145.071 22.8367 143.729 20.8271 143.61 18.7637C143.487 17.1878 143.931 15.5095 145.065 14.3672ZM147.987 14.4595C147.284 14.6906 146.722 15.2166 146.283 15.7986C145.906 16.2899 145.688 16.887 145.56 17.4901H152.127C152.152 16.3629 151.488 15.2919 150.549 14.7023C149.79 14.228 148.828 14.2148 147.987 14.4595Z" fill="#00A135"/>
</svg>
