<svg width="118" height="45" viewBox="0 0 118 45" fill="none" xmlns="http://www.w3.org/2000/svg">
<g clip-path="url(#clip0_15_281)">
<path d="M3.75921 11.2559H13.4906V7.87088H3.75921V3.54149H14.4118V0.057373H0V19.2429H3.75921V11.2559Z" fill="white"/>
<path d="M21.2055 11.6042H26.5814C27.5457 11.6042 28.2711 11.8468 28.7357 12.3255C29.2224 12.8264 29.5538 13.6521 29.7221 14.7778L30.3758 19.2429H34.3529L33.4709 13.8986C33.2947 12.7742 32.9685 11.865 32.4988 11.1972C32.2078 10.7837 31.8568 10.4328 31.451 10.1471C32.1178 9.80665 32.6697 9.34749 33.1003 8.77616C33.7136 7.96219 34.0241 6.92126 34.0241 5.68336C34.0241 3.92239 33.3939 2.52404 32.1517 1.52616C30.9382 0.550446 29.2145 0.057373 27.0289 0.057373H17.4463V19.2429H21.2055V11.6042ZM21.2055 3.44236H26.8541C29.8213 3.44236 30.1644 4.84723 30.1644 5.90511C30.1644 6.963 29.8213 8.34309 26.8541 8.34309H21.2055V3.44236Z" fill="white"/>
<path d="M40.9931 0.057373H37.2339V19.2429H40.9931V0.057373Z" fill="white"/>
<path d="M43.3877 3.56628H50.2315V19.2429H53.9907V3.56628H60.8358V0.057373H43.3877V3.56628Z" fill="white"/>
<path d="M78.3134 15.8083H68.0196L78.0642 2.64796V0.057373H63.1552V3.49323H72.9519L62.906 16.6523V19.2429H78.3134V15.8083Z" fill="white"/>
<path d="M13.4854 32.5649H3.7579V25.0032H0V44.1808H3.7579V36.0986H13.4854V44.1808H17.2433V25.0032H13.4854V32.5649Z" fill="white"/>
<path d="M26.8398 25.0032L19.2966 44.1808H23.1746L25.4385 38.2614H32.5341L34.798 44.1808H38.7999L31.2567 25.0032H26.8398ZM26.7485 34.8033L28.985 28.9256L31.2214 34.8033H26.7485Z" fill="white"/>
<path d="M54.6565 39.9806L46.2926 25.2288L46.1634 25.0032H40.8267V44.1808H44.5128L44.4658 29.3678L52.8298 43.9552L52.9589 44.1808H58.2944V25.0032H54.6095L54.6565 39.9806Z" fill="white"/>
<path d="M75.0377 33.6397C74.0108 33.3449 72.6603 33.0775 71.0176 32.8427C69.7976 32.6809 68.8255 32.5127 68.1287 32.3418C67.4854 32.1853 66.9465 31.9309 66.5277 31.5852C66.161 31.2826 65.9822 30.8639 65.9822 30.3017C65.9822 29.609 66.3045 29.0546 66.9661 28.6085C67.6746 28.1311 68.7328 27.8898 70.112 27.8898C71.6008 27.8898 72.7256 28.2198 73.4589 28.8707C74.2026 29.5321 74.7128 30.4725 74.9738 31.6661L75.0834 32.1722L78.7852 30.7882L78.7121 30.4165C78.4994 29.322 78.0349 28.3163 77.3303 27.4254C76.6231 26.5332 75.6523 25.8144 74.4453 25.2901C73.2488 24.7696 71.8161 24.5061 70.1864 24.5061C68.6611 24.5061 67.2779 24.7474 66.0775 25.2222C64.8549 25.7062 63.8867 26.3988 63.2016 27.2793C62.5023 28.1768 62.1487 29.236 62.1487 30.4282C62.1487 31.9022 62.5518 33.0644 63.3439 33.8862C64.1098 34.678 65.0467 35.2363 66.1297 35.5468C67.1553 35.8416 68.5071 36.109 70.1499 36.3438C71.3764 36.5081 72.3485 36.6764 73.0387 36.846C73.6833 37.0025 74.2209 37.2569 74.6385 37.6012C75.0064 37.9052 75.1852 38.3239 75.1852 38.8848C75.1852 39.5892 74.8472 40.1436 74.1518 40.5832C73.3976 41.0567 72.2389 41.2967 70.7083 41.2967C68.9951 41.2967 67.6994 40.9575 66.8565 40.287C66.0149 39.6192 65.4577 38.6722 65.1993 37.4721L65.091 36.9647L61.3879 38.3474L61.4597 38.7191C61.795 40.4697 62.7423 41.9189 64.2742 43.0263C65.7891 44.1234 67.9277 44.679 70.6326 44.679C72.2532 44.679 73.7081 44.4429 74.9555 43.9786C76.2304 43.5038 77.2338 42.8124 77.9371 41.9215C78.6534 41.0149 79.0162 39.9505 79.0162 38.7583C79.0162 37.2856 78.6143 36.1233 77.8196 35.3002C77.0537 34.5084 76.1155 33.9501 75.0338 33.6397H75.0377Z" fill="white"/>
<path d="M85.9356 35.9982H95.6644V32.6641H85.9356V28.4377H96.5843V25.0032H82.1777V44.1808H96.6835V40.7476H85.9356V35.9982Z" fill="white"/>
<path d="M113.749 25.0032L113.796 39.9806L105.431 25.2288L105.303 25.0032H99.9666V44.1808H103.651L103.604 29.3678L111.97 43.9552L112.098 44.1808H117.434V25.0032H113.749Z" fill="white"/>
</g>
<defs>
<clipPath id="clip0_15_281">
<rect width="117.434" height="44.7368" fill="white"/>
</clipPath>
</defs>
</svg>
