<svg width="105" height="40" viewBox="0 0 105 40" fill="none" xmlns="http://www.w3.org/2000/svg">
<g clip-path="url(#clip0_14_4748)">
<path d="M3.36117 10.0645H12.0622V7.03796H3.36117V3.16697H12.8859V0.0517578H0V17.2058H3.36117V10.0645Z" fill="black"/>
<path d="M18.9603 10.3759H23.767C24.6291 10.3759 25.2778 10.5929 25.6931 11.0209C26.1283 11.4688 26.4246 12.207 26.5751 13.2136L27.1596 17.2058H30.7157L29.927 12.4275C29.7695 11.4221 29.4778 10.6092 29.0578 10.012C28.7976 9.64233 28.4838 9.32859 28.121 9.07317C28.7171 8.76876 29.2106 8.35822 29.5956 7.84737C30.144 7.1196 30.4217 6.18888 30.4217 5.08205C30.4217 3.50753 29.8582 2.25725 28.7475 1.36502C27.6625 0.492623 26.1213 0.0517578 24.1671 0.0517578H15.5991V17.2058H18.9603V10.3759ZM18.9603 3.07833H24.0108C26.6638 3.07833 26.9706 4.33445 26.9706 5.28033C26.9706 6.2262 26.6638 7.46016 24.0108 7.46016H18.9603V3.07833Z" fill="black"/>
<path d="M36.6527 0.0517578H33.2915V17.2058H36.6527V0.0517578Z" fill="black"/>
<path d="M38.7935 3.18913H44.9126V17.2058H48.2738V3.18913H54.3942V0.0517578H38.7935V3.18913Z" fill="black"/>
<path d="M70.0214 14.135H60.8175L69.7986 2.36805V0.0517578H56.4682V3.12382H65.2275L56.2454 14.8896V17.2058H70.0214V14.135Z" fill="black"/>
<path d="M12.0575 29.1171H3.36001V22.356H0V39.503H3.36001V32.2766H12.0575V39.503H15.4175V22.356H12.0575V29.1171Z" fill="black"/>
<path d="M23.9982 22.356L17.2537 39.503H20.721L22.7452 34.2103H29.0895L31.1137 39.503H34.6919L27.9474 22.356H23.9982ZM23.9165 31.1184L25.9162 25.8631L27.9159 31.1184H23.9165Z" fill="black"/>
<path d="M48.8697 35.7475L41.3913 22.5577L41.2758 22.356H36.5042V39.503H39.8L39.758 26.2584L47.2363 39.3013L47.3518 39.503H52.1223V22.356H48.8277L48.8697 35.7475Z" fill="black"/>
<path d="M67.0927 30.0781C66.1745 29.8145 64.967 29.5754 63.4982 29.3655C62.4074 29.2209 61.5382 29.0704 60.9152 28.9176C60.34 28.7777 59.8582 28.5503 59.4837 28.2412C59.1559 27.9706 58.996 27.5962 58.996 27.0935C58.996 26.4742 59.2842 25.9785 59.8757 25.5797C60.5092 25.1528 61.4554 24.937 62.6885 24.937C64.0197 24.937 65.0254 25.2321 65.681 25.8141C66.346 26.4054 66.8022 27.2463 67.0355 28.3135L67.1335 28.766L70.4434 27.5286L70.378 27.1962C70.1879 26.2176 69.7726 25.3184 69.1425 24.5218C68.5102 23.7241 67.6422 23.0814 66.563 22.6126C65.4932 22.1472 64.2122 21.9116 62.755 21.9116C61.3912 21.9116 60.1545 22.1274 59.0812 22.5519C57.988 22.9846 57.1224 23.6039 56.5099 24.3912C55.8845 25.1936 55.5684 26.1407 55.5684 27.2067C55.5684 28.5246 55.9289 29.5638 56.637 30.2986C57.3219 31.0065 58.1595 31.5057 59.1279 31.7833C60.0449 32.0469 61.2535 32.2859 62.7224 32.4959C63.819 32.6428 64.6882 32.7933 65.3054 32.9449C65.8817 33.0849 66.3624 33.3123 66.7357 33.6202C67.0647 33.892 67.2245 34.2663 67.2245 34.7679C67.2245 35.3977 66.9224 35.8933 66.3005 36.2864C65.6262 36.7098 64.5902 36.9244 63.2217 36.9244C61.6899 36.9244 60.5314 36.6211 59.7777 36.0216C59.0252 35.4245 58.527 34.5777 58.296 33.5047L58.1992 33.0511L54.8882 34.2873L54.9523 34.6197C55.2522 36.1849 56.0992 37.4807 57.4689 38.4709C58.8234 39.4518 60.7355 39.9486 63.154 39.9486C64.603 39.9486 65.9039 39.7375 67.0192 39.3223C68.159 38.8978 69.0562 38.2796 69.685 37.483C70.3255 36.6724 70.6499 35.7207 70.6499 34.6547C70.6499 33.338 70.2906 32.2988 69.58 31.5628C68.8952 30.8549 68.0564 30.3557 67.0892 30.0781H67.0927Z" fill="black"/>
<path d="M76.8368 32.1868H85.5355V29.2057H76.8368V25.4269H86.358V22.356H73.4768V39.503H86.4467V36.4333H76.8368V32.1868Z" fill="black"/>
<path d="M101.706 22.356L101.748 35.7475L94.2681 22.5577L94.1538 22.356H89.3821V39.503H92.6768L92.6348 26.2584L100.114 39.3013L100.229 39.503H105V22.356H101.706Z" fill="black"/>
</g>
<defs>
<clipPath id="clip0_14_4748">
<rect width="105" height="40" fill="white"/>
</clipPath>
</defs>
</svg>
