<svg width="401" height="54" viewBox="0 0 401 54" fill="none" xmlns="http://www.w3.org/2000/svg">
<g clip-path="url(#clip0_15_343)">
<path fill-rule="evenodd" clip-rule="evenodd" d="M37.2378 2.3269H41.591V5.91787C40.1403 5.91787 38.6885 5.91787 37.2378 5.91787V2.3269ZM0.0623204 23.2575C0.062827 16.297 0.0613074 9.33647 0.062827 2.37594C1.43555 2.37644 2.80777 2.37594 4.18049 2.37644C4.18049 9.33697 4.17998 16.2975 4.18049 23.258C2.80777 23.257 1.43504 23.258 0.0623204 23.258V23.2575ZM48.0185 7.18664C49.0548 7.0628 50.1115 7.0906 51.1398 7.27308C52.0951 7.44747 53.0352 7.78058 53.8315 8.34572C54.5706 8.86333 55.1576 9.59174 55.5102 10.4212C55.7989 11.0809 55.9397 11.7946 55.9995 12.5094C54.642 12.5079 53.2845 12.5094 51.9269 12.5084C51.8525 12.0529 51.7091 11.596 51.4199 11.2285C51.1398 10.8534 50.7203 10.5992 50.2751 10.4672C49.5178 10.2484 48.6805 10.2433 47.9501 10.5602C47.5403 10.7367 47.1153 10.9904 46.9309 11.416C46.8033 11.7689 46.9375 12.1793 47.2024 12.4346C47.5104 12.7257 47.9192 12.8774 48.3173 13.0022C49.1278 13.2434 49.9656 13.3672 50.7913 13.5421C51.9345 13.7802 53.0879 14.0587 54.1243 14.6127C54.8593 15.005 55.532 15.561 55.9352 16.3C56.3389 17.0193 56.4488 17.8665 56.3916 18.6794C56.3414 19.6792 56.0557 20.6912 55.4403 21.4949C54.8988 22.2107 54.1243 22.7237 53.2941 23.0503C52.3884 23.4061 51.4184 23.5704 50.4509 23.6382C49.1491 23.7211 47.8265 23.666 46.5596 23.3369C45.6387 23.0978 44.7437 22.704 44.0077 22.0944C43.3897 21.5859 42.8999 20.9232 42.6066 20.1786C42.3447 19.5346 42.2287 18.8396 42.1983 18.1466C43.6141 18.1491 45.0299 18.1466 46.4457 18.1481C46.513 18.6536 46.6594 19.1636 46.9684 19.5771C47.2171 19.9153 47.5828 20.1564 47.9779 20.2903C48.5316 20.4809 49.1253 20.5026 49.7047 20.4905C50.232 20.4688 50.7715 20.4086 51.2558 20.1852C51.6058 20.0229 51.9153 19.7404 52.0363 19.3668C52.1402 19.0388 52.1736 18.6632 52.0181 18.3462C51.8803 18.0874 51.623 17.9181 51.3606 17.8033C50.9858 17.6401 50.5861 17.5425 50.188 17.4515C48.988 17.1872 47.7687 17.0042 46.5839 16.6751C45.6028 16.389 44.613 15.9892 43.8729 15.2623C43.2621 14.687 42.9039 13.8818 42.8006 13.0568C42.6669 11.9994 42.8062 10.8843 43.3233 9.94153C43.6784 9.29047 44.2027 8.73848 44.8176 8.3255C45.7654 7.6805 46.8889 7.33475 48.0175 7.18613L48.0185 7.18664ZM12.2811 7.21444C13.4841 7.11233 14.712 7.20332 15.8709 7.5516C17.3991 8.00502 18.782 8.96089 19.6923 10.2736C20.875 11.9468 21.2828 14.0532 21.1886 16.071C21.1197 17.6456 20.7048 19.2318 19.831 20.5582C19.0581 21.7436 17.9158 22.6818 16.6034 23.2161C15.4819 23.6811 14.2581 23.8742 13.047 23.8505C11.2624 23.8459 9.44293 23.3222 8.04336 22.193C6.81652 21.2174 5.96807 19.8182 5.55726 18.3169C5.19205 17.0082 5.11911 15.6282 5.26094 14.2806C5.44633 12.5114 6.1251 10.7554 7.36966 9.45829C8.63855 8.11218 10.4515 7.36255 12.2811 7.21495V7.21444ZM12.6828 10.771C11.9549 10.86 11.2543 11.2063 10.7756 11.7668C10.1703 12.4644 9.88615 13.3778 9.7585 14.2776C9.61667 15.3528 9.64251 16.4577 9.90236 17.5137C10.1156 18.3619 10.5396 19.198 11.2629 19.7227C12.0258 20.2782 13.0272 20.399 13.9415 20.2544C14.6603 20.1422 15.3426 19.7773 15.8056 19.2121C16.4033 18.4938 16.6713 17.5632 16.7873 16.6513C16.9098 15.6141 16.8754 14.5495 16.6236 13.5325C16.4109 12.6873 15.991 11.8513 15.2697 11.3291C14.5342 10.7902 13.5707 10.6558 12.6833 10.7715L12.6828 10.771ZM22.0634 7.73206C23.4569 7.73256 24.8498 7.73206 26.2433 7.73256C26.2433 10.1468 26.2433 12.562 26.2433 14.9767C26.2585 15.9988 26.1851 17.031 26.3674 18.0424C26.4799 18.6606 26.7033 19.2991 27.1906 19.7227C27.6905 20.1549 28.384 20.261 29.0242 20.2287C29.6468 20.2014 30.2957 20.0512 30.7824 19.6418C31.3097 19.2071 31.5813 18.5444 31.7266 17.8938C31.8771 17.2276 31.9064 16.5432 31.9201 15.8633C31.9191 13.1529 31.9191 10.442 31.9201 7.73155C33.3091 7.73155 34.6985 7.73206 36.0874 7.73155C36.0874 12.9067 36.0874 18.0819 36.0874 23.257C34.7628 23.255 33.4387 23.2621 32.1151 23.2535C32.1217 22.5342 32.1141 21.8149 32.1187 21.0961C31.6739 21.8361 31.0935 22.5124 30.3478 22.9623C29.5981 23.4243 28.7158 23.6382 27.8405 23.6639C26.4844 23.7211 25.0631 23.4228 23.9644 22.5938C23.3763 22.1536 22.9113 21.5591 22.6059 20.8939C22.2027 20.0346 22.0725 19.0767 22.0644 18.1365C22.0608 14.6683 22.0634 11.2002 22.0629 7.73155L22.0634 7.73206ZM37.3244 7.73307C38.7341 7.73206 40.1438 7.73307 41.5535 7.73256C41.5545 12.9077 41.5535 18.0829 41.5535 23.258C40.1438 23.258 38.7336 23.258 37.3244 23.258C37.3234 18.0829 37.3244 12.9082 37.3239 7.73307H37.3244ZM47.7991 24.7381C49.18 24.7396 50.5608 24.7381 51.9416 24.7391C51.9416 31.6789 51.9411 38.6187 51.9426 45.5585H47.7991C47.7996 38.6182 47.7991 31.6784 47.7991 24.7386V24.7381ZM22.6236 29.5812C24.632 29.3754 26.7646 29.7384 28.4407 30.9101C29.7932 31.8427 30.7622 33.2682 31.2398 34.8296C31.6142 36.0357 31.7342 37.3115 31.6679 38.5692C31.5731 40.4496 30.9648 42.3548 29.704 43.7838C28.5445 45.1218 26.8618 45.9442 25.1183 46.1868C23.1215 46.4684 20.9839 46.202 19.2475 45.1294C17.8434 44.2781 16.7938 42.9062 16.2463 41.3681C15.8299 40.2236 15.6602 38.9983 15.682 37.7837C15.685 36.6039 15.8816 35.4185 16.3015 34.3135C16.6905 33.2975 17.2867 32.3542 18.0759 31.6001C19.2916 30.4157 20.9464 29.7464 22.6241 29.5817L22.6236 29.5812ZM23.0187 33.2267C22.3916 33.3253 21.7822 33.6018 21.3365 34.0587C20.9155 34.4621 20.6344 34.9888 20.4424 35.5337C20.1015 36.5422 20.0362 37.6234 20.1051 38.6794C20.1851 39.6873 20.4237 40.7281 21.0472 41.5475C21.5102 42.1667 22.2265 42.5752 22.9883 42.695C23.9583 42.8481 25.0292 42.7086 25.8199 42.0894C26.5792 41.5 26.9834 40.5719 27.1713 39.6524C27.3906 38.5363 27.3866 37.3752 27.1662 36.2596C26.9758 35.3432 26.5711 34.4186 25.8123 33.8323C25.0317 33.2212 23.9776 33.0862 23.0192 33.2267H23.0187ZM56.115 30.2646C57.1007 29.8152 58.1781 29.5928 59.2556 29.5271C60.3031 29.4755 61.3663 29.5392 62.3789 29.8283C63.2288 30.0684 64.0423 30.4718 64.7019 31.0637C65.4298 31.7072 65.9383 32.5777 66.2002 33.5088C66.3319 33.9647 66.4059 34.4358 66.4494 34.9085C65.0742 34.9085 63.6989 34.9064 62.3242 34.909C62.2938 34.4515 62.1773 33.9829 61.8946 33.6124C61.5937 33.209 61.1216 32.9669 60.6389 32.8567C59.8264 32.6702 58.9384 32.6823 58.1807 33.0604C57.8246 33.2388 57.4751 33.5108 57.358 33.9076C57.2628 34.2038 57.3459 34.5445 57.5662 34.7649C57.893 35.1005 58.3509 35.2562 58.786 35.3973C59.7099 35.6753 60.6647 35.8269 61.6044 36.0413C62.6559 36.2672 63.7121 36.5523 64.6542 37.0851C65.4166 37.5077 66.0969 38.1233 66.4788 38.916C66.8643 39.6939 66.923 40.5881 66.8395 41.4398C66.7533 42.3659 66.4362 43.2874 65.8411 44.0117C65.2996 44.6845 64.5494 45.1658 63.7511 45.4812C62.7451 45.878 61.6621 46.0418 60.5862 46.0948C59.4004 46.1505 58.2014 46.0772 57.0445 45.8007C56.0806 45.5631 55.1364 45.1723 54.3644 44.539C53.7444 44.037 53.2581 43.3708 52.9729 42.6272C52.7065 41.9428 52.6032 41.2053 52.6092 40.4739C54.0357 40.4744 55.4616 40.4739 56.8885 40.4744C56.8606 41.0572 57.0561 41.6557 57.4654 42.0798C57.9507 42.5716 58.6396 42.8006 59.3133 42.881C59.907 42.9502 60.5133 42.928 61.0973 42.7966C61.496 42.6965 61.8961 42.5377 62.1945 42.2461C62.4969 41.9509 62.6332 41.5071 62.5759 41.0921C62.5405 40.8055 62.349 40.5568 62.1038 40.4122C61.6859 40.1559 61.2022 40.0432 60.7311 39.9269C59.4374 39.6322 58.1244 39.4149 56.852 39.0327C56.0532 38.7825 55.2574 38.4625 54.5999 37.9328C54.0549 37.5001 53.638 36.9092 53.4258 36.246C53.208 35.5813 53.174 34.8716 53.2166 34.178C53.2809 33.3485 53.5625 32.5317 54.0635 31.8634C54.5863 31.1578 55.3192 30.6265 56.115 30.2651V30.2646ZM72.7016 29.8319C73.6853 29.565 74.7146 29.5038 75.7282 29.5791C76.7342 29.6585 77.7377 29.9067 78.6277 30.3909C79.4189 30.8145 80.1022 31.4277 80.6275 32.1521C81.5311 33.4006 81.9647 34.9272 82.1228 36.4441C82.2124 37.3191 82.214 38.2032 82.1522 39.0802C78.6596 39.0802 75.1675 39.0772 71.6754 39.0817C71.7291 39.9825 71.9712 40.9131 72.574 41.6097C73.1535 42.2956 74.0445 42.6707 74.9335 42.703C75.6522 42.7243 76.4328 42.5969 76.9844 42.1C77.3329 41.7942 77.5513 41.3731 77.7057 40.9435C79.1205 40.9435 80.5338 40.9424 81.9485 40.9435C81.6345 42.3497 80.8985 43.6807 79.7815 44.6072C79.078 45.1991 78.2417 45.6278 77.3578 45.874C76.4445 46.1353 75.4856 46.1939 74.5414 46.1414C73.617 46.0933 72.6935 45.9432 71.8208 45.6313C71.0098 45.3427 70.2485 44.9029 69.6183 44.3145C68.9512 43.6973 68.4416 42.9214 68.0921 42.0863C67.6717 41.082 67.4645 39.9992 67.3855 38.9165C67.3029 37.7174 67.3404 36.5002 67.6226 35.3265C67.9883 33.7464 68.8003 32.239 70.059 31.1916C70.8239 30.5492 71.7372 30.0887 72.7011 29.8314L72.7016 29.8319ZM72.8521 33.8303C72.1753 34.4353 71.7514 35.3225 71.721 36.2303C73.7573 36.2253 75.7925 36.2303 77.8278 36.2283C77.8081 35.5358 77.6232 34.8357 77.22 34.265C76.8244 33.6887 76.2064 33.2677 75.521 33.1226C74.5865 32.9249 73.5623 33.1888 72.8521 33.8303ZM88.7843 30.3232C89.613 29.8162 90.5845 29.5655 91.554 29.5392C92.289 29.5271 93.0321 29.5842 93.7453 29.7717C94.5021 29.9684 95.2285 30.3353 95.773 30.9035C96.3454 31.4813 96.704 32.2375 96.9178 33.0139C97.2708 34.3095 97.2582 35.6632 97.2557 36.9946C97.2567 39.8491 97.2546 42.7035 97.2567 45.5575C95.8515 45.56 94.4459 45.5575 93.0397 45.559C93.0382 43.0827 93.0397 40.6058 93.0387 38.1299C93.0336 37.2888 93.062 36.4446 92.9759 35.6065C92.8949 34.9014 92.7302 34.1442 92.2029 33.6291C91.6802 33.1307 90.9107 33.0291 90.2183 33.0645C89.496 33.0953 88.759 33.3672 88.2767 33.9202C87.795 34.4586 87.5569 35.1642 87.4298 35.8633C87.255 36.8389 87.3092 37.8332 87.3006 38.8184C87.2996 41.0653 87.3006 43.3116 87.2996 45.559C85.8935 45.558 84.4878 45.559 83.0827 45.558C83.0842 40.3788 83.0837 35.2001 83.0827 30.0214C84.4225 30.0204 85.7618 30.0214 87.1016 30.0214C87.1031 30.7448 87.1 31.4676 87.1031 32.191C87.4602 31.4191 88.0579 30.7655 88.7843 30.3237V30.3232ZM5.36427 30.4668C6.25173 29.8743 7.33269 29.5963 8.39591 29.6135C9.4019 29.5988 10.42 29.7864 11.3313 30.2201C12.393 30.7235 13.2612 31.5839 13.8356 32.6019C14.5397 33.8333 14.8715 35.2426 14.9966 36.6453C15.183 38.7021 14.9323 40.8484 13.9734 42.7005C13.5373 43.5507 12.9416 44.3292 12.1879 44.9226C11.4904 45.4792 10.6561 45.8628 9.77978 46.0307C8.69072 46.2384 7.54189 46.1767 6.49487 45.8037C5.54156 45.4691 4.69564 44.8271 4.143 43.9804C4.14351 46.5099 4.14351 49.0393 4.143 51.5687C2.76319 51.5708 1.38338 51.5667 0.00305529 51.5708C-0.00352973 44.3914 0.00305529 37.213 1.60515e-05 30.0341C1.31094 30.0331 2.62237 30.0341 3.9333 30.0341C3.9333 30.6811 3.9338 31.3286 3.93279 31.9756C4.29446 31.3782 4.78074 30.8545 5.36427 30.4673V30.4668ZM6.74409 33.3753C6.34392 33.4461 5.95743 33.5982 5.62058 33.8262C5.09277 34.1796 4.71033 34.7164 4.46618 35.2957C4.12983 36.0948 4.01282 36.9678 3.99459 37.8297C3.9875 38.6273 4.08374 39.4341 4.35525 40.1877C4.58319 40.8302 4.95701 41.4388 5.50154 41.8619C5.91944 42.1935 6.43256 42.3942 6.96038 42.4629C7.64877 42.5559 8.37869 42.47 8.99059 42.1268C9.56349 41.8109 9.98594 41.275 10.2559 40.6882C10.7123 39.6888 10.8096 38.5682 10.766 37.4834C10.723 36.6827 10.5857 35.8749 10.2524 35.141C9.98949 34.5597 9.57868 34.0294 9.01946 33.7069C8.33918 33.3096 7.50896 33.2409 6.74409 33.3748V33.3753ZM32.4515 30.0336C33.845 30.0326 35.239 30.0326 36.6325 30.0336C36.6309 32.978 36.6325 35.922 36.6325 38.8664C36.6188 39.7171 36.7003 40.6033 37.1066 41.367C37.3416 41.8053 37.7084 42.1778 38.1658 42.3826C38.6449 42.6019 39.1859 42.6414 39.7051 42.5923C40.2689 42.5332 40.8256 42.3148 41.241 41.9231C41.7637 41.4302 42.0433 40.7362 42.1765 40.0432C42.3062 39.3977 42.3113 38.7365 42.3093 38.0809C42.3093 35.3978 42.3093 32.7152 42.3093 30.0325C43.6982 30.0325 45.0881 30.032 46.4776 30.0325C46.4771 35.2153 46.4771 40.398 46.4771 45.5813C45.154 45.5838 43.8304 45.5813 42.5073 45.5828C42.5078 44.8812 42.5053 44.1791 42.5093 43.4769C42.0656 44.2832 41.4451 45.0207 40.6204 45.4559C39.8024 45.8992 38.8531 46.0261 37.9333 46.0145C36.8174 46.0226 35.6624 45.8371 34.6929 45.2557C33.9443 44.8129 33.3633 44.1139 33.0208 43.3192C32.5893 42.3416 32.4702 41.2619 32.453 40.2044C32.452 36.8141 32.454 33.4233 32.453 30.0325L32.4515 30.0336Z" fill="white"/>
</g>
<defs>
<clipPath id="clip0_15_343">
<rect width="97.2556" height="49.3461" fill="white" transform="translate(0 2.3269)"/>
</clipPath>
</defs>
</svg>
