<svg width="48" height="24" viewBox="0 0 48 24" fill="none" xmlns="http://www.w3.org/2000/svg">
<g clip-path="url(#clip0_14_4689)">
<path fill-rule="evenodd" clip-rule="evenodd" d="M18.111 0H20.2282V1.74651C19.5226 1.74651 18.8166 1.74651 18.111 1.74651V0ZM0.0303102 10.1798C0.0305566 6.79451 0.0298175 3.40918 0.0305566 0.0238473C0.698195 0.0240931 1.36559 0.0238473 2.03323 0.0240931C2.03323 3.40942 2.03298 6.79475 2.03323 10.1801C1.36559 10.1796 0.697949 10.1801 0.0303102 10.1801V10.1798ZM23.3543 2.36358C23.8583 2.30335 24.3723 2.31687 24.8724 2.40562C25.337 2.49044 25.7943 2.65246 26.1815 2.92731C26.541 3.17906 26.8265 3.53333 26.998 3.93677C27.1384 4.2576 27.2069 4.60474 27.236 4.95236C26.5757 4.95163 25.9155 4.95236 25.2552 4.95187C25.219 4.73036 25.1493 4.50812 25.0086 4.32939C24.8724 4.14697 24.6684 4.0233 24.4518 3.95914C24.0835 3.85269 23.6763 3.85023 23.321 4.00437C23.1217 4.09018 22.915 4.21359 22.8254 4.4206C22.7633 4.5922 22.8286 4.79183 22.9574 4.91598C23.1072 5.05759 23.306 5.13134 23.4996 5.19207C23.8938 5.30934 24.3013 5.36957 24.7029 5.45463C25.2589 5.57043 25.8199 5.70589 26.3239 5.97534C26.6814 6.16612 27.0086 6.43655 27.2047 6.79598C27.401 7.14582 27.4545 7.55786 27.4266 7.95319C27.4023 8.43948 27.2633 8.93166 26.964 9.32256C26.7006 9.67068 26.3239 9.92022 25.9201 10.079C25.4797 10.2521 25.0079 10.332 24.5373 10.365C23.9042 10.4053 23.2609 10.3785 22.6448 10.2184C22.1969 10.1021 21.7616 9.91063 21.4036 9.61414C21.103 9.36681 20.8648 9.04451 20.7222 8.68237C20.5948 8.36916 20.5384 8.03112 20.5236 7.69406C21.2122 7.69529 21.9008 7.69406 22.5893 7.6948C22.6221 7.94065 22.6933 8.18871 22.8436 8.38981C22.9646 8.55429 23.1424 8.67156 23.3346 8.7367C23.6039 8.82939 23.8926 8.83996 24.1744 8.83406C24.4309 8.82349 24.6933 8.79423 24.9288 8.68557C25.099 8.60665 25.2496 8.46922 25.3084 8.28754C25.3589 8.12799 25.3752 7.94532 25.2996 7.79117C25.2326 7.6653 25.1074 7.58294 24.9798 7.52713C24.7975 7.44772 24.6031 7.40027 24.4095 7.35602C23.8258 7.22744 23.2328 7.13845 22.6566 6.9784C22.1794 6.83925 21.698 6.64478 21.3381 6.29125C21.041 6.01148 20.8668 5.61984 20.8165 5.21862C20.7515 4.7043 20.8192 4.16196 21.0708 3.70346C21.2435 3.3868 21.4985 3.11834 21.7975 2.91748C22.2585 2.60378 22.8049 2.43562 23.3538 2.36334L23.3543 2.36358ZM5.97303 2.37711C6.55814 2.32744 7.15532 2.3717 7.71899 2.54109C8.46226 2.76161 9.13483 3.22651 9.57754 3.86498C10.1528 4.67874 10.3511 5.70318 10.3053 6.68461C10.2718 7.45043 10.07 8.2219 9.64504 8.867C9.26909 9.44352 8.71355 9.89981 8.07523 10.1597C7.52979 10.3859 6.93458 10.4798 6.34553 10.4682C5.4776 10.466 4.59267 10.2113 3.91197 9.66208C3.31529 9.18759 2.90263 8.50708 2.70283 7.77691C2.52521 7.14041 2.48973 6.46925 2.55871 5.81382C2.64888 4.95335 2.97901 4.09927 3.58431 3.46843C4.20145 2.81373 5.08318 2.44914 5.97303 2.37735V2.37711ZM6.1684 4.10689C5.81437 4.15016 5.47366 4.31857 5.24085 4.59121C4.94644 4.93048 4.80824 5.37473 4.74615 5.81234C4.67717 6.33526 4.68974 6.87268 4.81612 7.38626C4.91984 7.79879 5.12604 8.20543 5.47785 8.46062C5.84887 8.73081 6.33592 8.78956 6.7806 8.71925C7.13019 8.66467 7.46204 8.48717 7.68721 8.21231C7.97792 7.86296 8.10824 7.41035 8.16466 6.96684C8.22428 6.46236 8.20753 5.94461 8.08508 5.44996C7.98161 5.0389 7.77738 4.63227 7.42656 4.37831C7.06884 4.11624 6.60027 4.05084 6.16864 4.10714L6.1684 4.10689ZM10.7308 2.62885C11.4085 2.6291 12.086 2.62885 12.7637 2.6291C12.7637 3.80327 12.7637 4.97793 12.7637 6.15235C12.7711 6.64945 12.7354 7.15148 12.8241 7.64342C12.8788 7.94409 12.9874 8.2546 13.2244 8.46062C13.4676 8.67082 13.8048 8.72245 14.1162 8.70671C14.419 8.69344 14.7346 8.62042 14.9714 8.42128C15.2278 8.20985 15.3599 7.88755 15.4306 7.57114C15.5038 7.24711 15.518 6.91423 15.5247 6.58357C15.5242 5.26533 15.5242 3.94685 15.5247 2.62861C16.2002 2.62861 16.876 2.62885 17.5515 2.62861C17.5515 5.1456 17.5515 7.66259 17.5515 10.1796C16.9073 10.1786 16.2633 10.182 15.6195 10.1779C15.6227 9.82802 15.6191 9.47818 15.6213 9.12859C15.405 9.48851 15.1226 9.81745 14.76 10.0363C14.3954 10.261 13.9662 10.365 13.5405 10.3775C12.881 10.4053 12.1897 10.2602 11.6553 9.85703C11.3693 9.6429 11.1432 9.35378 10.9946 9.03025C10.7985 8.61231 10.7352 8.14642 10.7312 7.68915C10.7295 6.00238 10.7308 4.31562 10.7305 2.62861L10.7308 2.62885ZM18.1531 2.62935C18.8387 2.62885 19.5244 2.62935 20.21 2.6291C20.2105 5.14609 20.21 7.66309 20.21 10.1801C19.5244 10.1801 18.8385 10.1801 18.1531 10.1801C18.1526 7.66309 18.1531 5.14634 18.1529 2.62935H18.1531ZM23.2476 10.8999C23.9192 10.9007 24.5908 10.8999 25.2624 10.9004C25.2624 14.2757 25.2621 17.6509 25.2629 21.0262H23.2476C23.2479 17.6507 23.2476 14.2754 23.2476 10.9002V10.8999ZM11.0032 13.2554C11.9801 13.1553 13.0172 13.3319 13.8324 13.9017C14.4902 14.3553 14.9615 15.0486 15.1938 15.808C15.3759 16.3946 15.4343 17.0151 15.402 17.6268C15.3559 18.5414 15.0601 19.468 14.4469 20.163C13.8829 20.8137 13.0645 21.2137 12.2166 21.3318C11.2454 21.4687 10.2058 21.3391 9.36123 20.8174C8.67832 20.4034 8.16786 19.7362 7.90155 18.9881C7.69904 18.4315 7.61651 17.8355 7.6271 17.2448C7.62858 16.671 7.72416 16.0944 7.9284 15.557C8.1176 15.0629 8.40757 14.6041 8.7914 14.2373C9.38267 13.6613 10.1875 13.3358 11.0035 13.2556L11.0032 13.2554ZM11.1954 15.0285C10.8904 15.0764 10.594 15.2109 10.3772 15.4331C10.1725 15.6293 10.0358 15.8855 9.9424 16.1505C9.7766 16.641 9.74482 17.1668 9.77832 17.6804C9.81725 18.1706 9.93328 18.6768 10.2366 19.0754C10.4617 19.3765 10.8101 19.5752 11.1806 19.6334C11.6524 19.7079 12.1732 19.6401 12.5578 19.3389C12.9271 19.0522 13.1237 18.6009 13.2151 18.1537C13.3217 17.6108 13.3198 17.0461 13.2126 16.5035C13.12 16.0578 12.9231 15.6082 12.5541 15.323C12.1744 15.0257 11.6618 14.9601 11.1956 15.0285H11.1954ZM27.2921 13.5878C27.7715 13.3692 28.2956 13.261 28.8196 13.2291C29.329 13.204 29.8462 13.235 30.3386 13.3756C30.752 13.4924 31.1477 13.6886 31.4684 13.9765C31.8225 14.2894 32.0698 14.7128 32.1972 15.1656C32.2612 15.3874 32.2972 15.6165 32.3184 15.8464C31.6495 15.8464 30.9806 15.8454 30.312 15.8466C30.2972 15.6241 30.2406 15.3962 30.1031 15.216C29.9568 15.0198 29.7272 14.9021 29.4924 14.8485C29.0972 14.7578 28.6653 14.7637 28.2968 14.9476C28.1236 15.0344 27.9536 15.1666 27.8967 15.3596C27.8504 15.5037 27.8908 15.6694 27.998 15.7766C28.1569 15.9398 28.3796 16.0155 28.5912 16.0841C29.0406 16.2193 29.5049 16.2931 29.9619 16.3973C30.4734 16.5072 30.9871 16.6459 31.4453 16.905C31.8161 17.1105 32.1469 17.41 32.3327 17.7955C32.5202 18.1738 32.5487 18.6087 32.5081 19.023C32.4662 19.4734 32.312 19.9216 32.0225 20.2739C31.7591 20.6011 31.3943 20.8351 31.006 20.9885C30.5168 21.1815 29.99 21.2612 29.4668 21.287C28.89 21.314 28.3069 21.2784 27.7442 21.1439C27.2754 21.0284 26.8162 20.8383 26.4407 20.5303C26.1392 20.2862 25.9027 19.9621 25.764 19.6005C25.6344 19.2676 25.5841 18.9089 25.5871 18.5532C26.2808 18.5534 26.9743 18.5532 27.6683 18.5534C27.6548 18.8369 27.7499 19.128 27.9489 19.3342C28.1849 19.5734 28.52 19.6848 28.8477 19.7239C29.1364 19.7576 29.4313 19.7468 29.7153 19.6828C29.9092 19.6342 30.1038 19.557 30.249 19.4151C30.396 19.2715 30.4623 19.0557 30.4345 18.8538C30.4172 18.7145 30.3241 18.5935 30.2049 18.5232C30.0016 18.3985 29.7663 18.3437 29.5372 18.2872C28.908 18.1438 28.2694 18.0381 27.6506 17.8523C27.2621 17.7306 26.875 17.5749 26.5553 17.3173C26.2902 17.1069 26.0874 16.8195 25.9842 16.4969C25.8783 16.1736 25.8618 15.8284 25.8825 15.4911C25.9137 15.0877 26.0507 14.6904 26.2944 14.3654C26.5486 14.0222 26.9051 13.7638 27.2921 13.588V13.5878ZM35.3592 13.3773C35.8377 13.2475 36.3383 13.2178 36.8312 13.2544C37.3205 13.293 37.8085 13.4137 38.2414 13.6492C38.6262 13.8553 38.9586 14.1535 39.214 14.5058C39.6535 15.113 39.8644 15.8555 39.9413 16.5933C39.9849 17.0188 39.9856 17.4488 39.9556 17.8754C38.2569 17.8754 36.5585 17.8739 34.8601 17.8761C34.8862 18.3142 35.004 18.7668 35.2971 19.1056C35.579 19.4392 36.0123 19.6216 36.4447 19.6374C36.7943 19.6477 37.1739 19.5857 37.4422 19.3441C37.6117 19.1953 37.7179 18.9905 37.793 18.7816C38.4811 18.7816 39.1685 18.7811 39.8565 18.7816C39.7038 19.4655 39.3458 20.1128 38.8026 20.5635C38.4604 20.8514 38.0537 21.0598 37.6238 21.1796C37.1796 21.3067 36.7132 21.3352 36.254 21.3096C35.8044 21.2863 35.3553 21.2133 34.9308 21.0616C34.5364 20.9212 34.1661 20.7073 33.8596 20.4211C33.5352 20.1209 33.2873 19.7436 33.1173 19.3374C32.9129 18.8489 32.8121 18.3223 32.7737 17.7957C32.7335 17.2126 32.7517 16.6206 32.889 16.0497C33.0668 15.2812 33.4618 14.5481 34.074 14.0387C34.446 13.7262 34.8902 13.5022 35.359 13.3771L35.3592 13.3773ZM35.4324 15.322C35.1033 15.6163 34.897 16.0477 34.8823 16.4893C35.8726 16.4868 36.8625 16.4893 37.8524 16.4883C37.8428 16.1515 37.7529 15.811 37.5568 15.5334C37.3644 15.2532 37.0638 15.0484 36.7305 14.9778C36.2759 14.8817 35.7778 15.01 35.4324 15.322ZM43.1812 13.6163C43.5842 13.3697 44.0568 13.2478 44.5283 13.235C44.8858 13.2291 45.2472 13.2569 45.594 13.3481C45.9621 13.4437 46.3154 13.6222 46.5802 13.8985C46.8586 14.1795 47.033 14.5473 47.137 14.9249C47.3087 15.5551 47.3026 16.2134 47.3013 16.861C47.3018 18.2493 47.3008 19.6376 47.3018 21.0257C46.6184 21.0269 45.9348 21.0257 45.2509 21.0264C45.2501 19.822 45.2509 18.6173 45.2504 17.4132C45.2479 17.0041 45.2617 16.5935 45.2198 16.1859C45.1804 15.8429 45.1003 15.4747 44.8439 15.2241C44.5896 14.9817 44.2154 14.9323 43.8786 14.9495C43.5273 14.9645 43.1689 15.0968 42.9343 15.3658C42.7 15.6276 42.5843 15.9708 42.5224 16.3108C42.4374 16.7853 42.4638 17.2689 42.4596 17.748C42.4591 18.8408 42.4596 19.9334 42.4591 21.0264C41.7752 21.0259 41.0915 21.0264 40.4081 21.0259C40.4089 18.507 40.4086 15.9882 40.4081 13.4695C41.0598 13.469 41.7112 13.4695 42.3628 13.4695C42.3635 13.8213 42.362 14.1729 42.3635 14.5247C42.5372 14.1493 42.8279 13.8314 43.1812 13.6165V13.6163ZM2.60897 13.6861C3.0406 13.398 3.56633 13.2628 4.08344 13.2711C4.57271 13.264 5.0679 13.3552 5.5111 13.5661C6.02748 13.811 6.44974 14.2294 6.72911 14.7246C7.07155 15.3235 7.23292 16.0089 7.29377 16.6911C7.38443 17.6915 7.26248 18.7353 6.79612 19.6361C6.58401 20.0497 6.29429 20.4283 5.9277 20.7169C5.58846 20.9876 5.1827 21.1742 4.7565 21.2558C4.22682 21.3568 3.66808 21.3268 3.15885 21.1454C2.6952 20.9826 2.28377 20.6704 2.01499 20.2586C2.01524 21.4888 2.01524 22.7191 2.01499 23.9493C1.34391 23.9503 0.67282 23.9483 0.00148597 23.9503C-0.00171672 20.4585 0.00148597 16.9672 7.80681e-06 13.4757C0.63759 13.4752 1.27542 13.4757 1.913 13.4757C1.913 13.7904 1.91325 14.1053 1.91275 14.42C2.08866 14.1294 2.32516 13.8747 2.60897 13.6864V13.6861ZM3.28006 15.1007C3.08543 15.1351 2.89746 15.2091 2.73363 15.32C2.47692 15.4919 2.29092 15.753 2.17217 16.0347C2.00859 16.4234 1.95168 16.848 1.94281 17.2671C1.93936 17.6551 1.98617 18.0475 2.11822 18.414C2.22908 18.7265 2.4109 19.0225 2.67573 19.2283C2.87898 19.3896 3.12855 19.4872 3.38525 19.5206C3.72006 19.5658 4.07507 19.524 4.37267 19.3571C4.6513 19.2034 4.85677 18.9428 4.98808 18.6574C5.21005 18.1714 5.25735 17.6263 5.23617 17.0987C5.21522 16.7093 5.14846 16.3164 4.98635 15.9595C4.85849 15.6768 4.65869 15.4189 4.38671 15.262C4.05585 15.0688 3.65206 15.0353 3.28006 15.1005V15.1007ZM15.7831 13.4754C16.4609 13.4749 17.1389 13.4749 17.8166 13.4754C17.8159 14.9075 17.8166 16.3393 17.8166 17.7714C17.8099 18.1851 17.8496 18.6161 18.0472 18.9876C18.1615 19.2007 18.3399 19.3819 18.5623 19.4815C18.7954 19.5882 19.0585 19.6074 19.311 19.5835C19.5852 19.5548 19.856 19.4486 20.058 19.258C20.3122 19.0183 20.4482 18.6808 20.513 18.3437C20.5761 18.0298 20.5785 17.7082 20.5776 17.3893C20.5776 16.0844 20.5776 14.7797 20.5776 13.4749C21.2531 13.4749 21.9291 13.4747 22.6049 13.4749C22.6046 15.9956 22.6046 18.5163 22.6046 21.0372C21.9611 21.0385 21.3174 21.0372 20.6739 21.038C20.6741 20.6967 20.6729 20.3552 20.6749 20.0138C20.4591 20.4059 20.1573 20.7646 19.7562 20.9763C19.3583 21.1919 18.8966 21.2536 18.4492 21.2479C17.9065 21.2519 17.3448 21.1616 16.8733 20.8789C16.5092 20.6635 16.2266 20.3235 16.06 19.9371C15.8501 19.4616 15.7922 18.9365 15.7839 18.4221C15.7834 16.7732 15.7844 15.1241 15.7839 13.4749L15.7831 13.4754Z" fill="black"/>
</g>
<defs>
<clipPath id="clip0_14_4689">
<rect width="47.3013" height="24" fill="white"/>
</clipPath>
</defs>
</svg>
